<?xml version="1.0" standalone="no"?>
<!DOCTYPE svg PUBLIC "-//W3C//DTD SVG 20010904//EN"
 "http://www.w3.org/TR/2001/REC-SVG-20010904/DTD/svg10.dtd">
<svg version="1.0" xmlns="http://www.w3.org/2000/svg"
 width="147.000000pt" height="36.000000pt" viewBox="0 0 147.000000 36.000000"
 preserveAspectRatio="xMidYMid meet">
<metadata>
Created by potrace 1.16, written by Peter Selinger 2001-2019
</metadata>
<g transform="translate(0.000000,36.000000) scale(0.100000,-0.100000)"
fill="#000000" stroke="none">
<path d="M138 337 c47 -50 10 -137 -58 -137 -19 0 -40 9 -55 25 l-25 24 0 -69
0 -69 25 24 c73 73 184 -37 113 -112 l-21 -23 676 0 677 0 0 51 0 50 -23 -27
c-20 -23 -34 -28 -87 -32 -70 -5 -80 2 -80 56 0 28 3 32 25 32 18 0 25 -5 25
-19 0 -24 36 -37 55 -21 25 21 17 37 -32 61 -116 58 -76 175 55 167 l47 -3 3
-42 c3 -37 0 -43 -16 -43 -10 0 -24 11 -30 25 -13 29 -24 31 -47 9 -20 -21 -7
-39 41 -54 19 -6 41 -21 49 -33 14 -20 15 -13 15 81 l0 102 -677 0 -676 0 21
-23z m406 -106 l30 -83 30 86 31 86 47 0 c41 0 48 -3 48 -20 0 -11 -4 -20 -10
-20 -6 0 -10 -40 -10 -100 0 -60 4 -100 10 -100 6 0 10 -9 10 -20 0 -18 -7
-20 -55 -20 -48 0 -55 2 -55 20 0 11 7 20 15 20 12 0 15 14 14 73 0 39 -3 68
-5 62 -3 -5 -17 -41 -32 -80 -23 -60 -31 -70 -52 -70 -20 0 -27 10 -50 74
l-27 74 -6 -39 c-11 -65 -8 -94 8 -94 8 0 15 -9 15 -20 0 -17 -7 -20 -50 -20
-43 0 -50 3 -50 20 0 11 7 20 15 20 12 0 15 18 15 100 0 60 -4 100 -10 100 -5
0 -10 9 -10 21 0 18 5 20 52 17 l52 -3 30 -84z m408 -31 c21 -63 43 -116 48
-118 6 -2 10 -12 10 -23 0 -17 -8 -19 -60 -19 -53 0 -60 2 -60 20 0 11 5 20
10 20 6 0 10 7 10 15 0 21 -76 21 -84 0 -3 -8 -1 -15 4 -15 6 0 10 -9 10 -20
0 -17 -7 -20 -50 -20 -43 0 -50 3 -50 20 0 11 6 20 13 20 6 0 32 54 56 121 43
120 43 120 74 117 29 -3 32 -7 69 -118z m230 110 c59 -17 78 -80 38 -120 l-20
-20 20 -41 c12 -22 27 -42 35 -46 8 -3 15 -14 15 -24 0 -16 -7 -19 -43 -19
-43 0 -44 1 -68 52 -30 64 -49 73 -49 24 0 -25 4 -36 15 -36 8 0 15 -9 15 -20
0 -18 -7 -20 -60 -20 -53 0 -60 2 -60 20 0 11 5 20 10 20 6 0 10 40 10 100 0
60 -4 100 -10 100 -5 0 -10 9 -10 20 0 18 7 20 63 20 34 0 79 -5 99 -10z
m-877 -75 c33 -32 33 -78 0 -110 -51 -52 -135 -18 -135 54 0 74 83 109 135 56z"/>
</g>
</svg>
